<svg xmlns="http://www.w3.org/2000/svg" viewBox="0 0 200 200">
  <!-- Orange background with rounded corners -->
  <rect width="200" height="200" rx="20" fill="#F75B1C"/>
  
  <!-- Shopping bag -->
  <path d="M60 75 L60 160 C60 166 64 170 70 170 L130 170 C136 170 140 166 140 160 L140 75 Z" fill="white" stroke="white" stroke-width="2"/>
  <path d="M75 75 C75 60 85 50 100 50 C115 50 125 60 125 75" fill="none" stroke="white" stroke-width="5"/>
  
  <!-- Dress icon inside bag -->
  <g opacity="0.85">
    <path d="M95 90 L90 100 L90 130 L95 130 L95 100 Z" fill="#F75B1C"/>
    <path d="M105 90 L110 100 L110 130 L105 130 L105 100 Z" fill="#F75B1C"/>
    <circle cx="100" cy="95" r="6" fill="#F75B1C"/>
  </g>
  
  <!-- High heel shoe -->
  <g opacity="0.85">
    <ellipse cx="115" cy="145" rx="12" ry="5" fill="#F75B1C"/>
    <path d="M115 138 L120 128 L123 135" fill="#F75B1C"/>
  </g>
  
  <!-- Small handbag icon -->
  <g opacity="0.85">
    <rect x="70" y="110" width="18" height="20" rx="2" fill="#F75B1C"/>
    <path d="M73 110 C73 106 75 103 79 103 C83 103 85 106 85 110" fill="none" stroke="#F75B1C" stroke-width="2"/>
  </g>
</svg>
